<svg width="35" height="33" xmlns="http://www.w3.org/2000/svg" xml:space="preserve" version="1.1">

 <g>
  <title>Layer 1</title>
  <g id="svg_4"/>
  <g id="svg_5"/>
  <g id="svg_6"/>
  <g id="svg_7"/>
  <g id="svg_8"/>
  <g id="svg_9"/>
  <g id="svg_10"/>
  <g id="svg_11"/>
  <g id="svg_12"/>
  <g id="svg_13"/>
  <g id="svg_14"/>
  <g id="svg_15"/>
  <g id="svg_16"/>
  <g id="svg_17"/>
  <g id="svg_18"/>
  <g id="svg_53">
   <g id="svg_22" stroke-width="0.25" stroke-linejoin="round" stroke-linecap="round">
    <path id="svg_23" stroke="#e17726" fill="#e17726" d="m32.64765,0.9507l-13.1341,9.7183l2.4424,-5.72731l10.6917,-3.99099z"/>
    <g id="svg_24" stroke="#e27625" fill="#e27625">
     <path id="svg_25" d="m2.35241,0.9507l13.01714,9.809l-2.3254,-5.81802l-10.69174,-3.99098z"/>
     <path id="svg_26" d="m27.91895,23.4842l-3.4947,5.3386l7.4829,2.0603l2.1436,-7.2823l-6.1318,-0.1166z"/>
     <path id="svg_27" d="m0.96226,23.6008l2.13055,7.2823l7.46994,-2.0603l-3.48166,-5.3386l-6.11883,0.1166z"/>
     <path id="svg_28" d="m10.16005,14.4656l-2.0786,3.1358l7.405,0.3369l-0.2469,-7.969l-5.0795,4.4963z"/>
     <path id="svg_29" d="m24.83995,14.4656l-5.1575,-4.58704l-0.1688,8.05974l7.4049,-0.3369l-2.0786,-3.1358z"/>
     <path id="svg_30" d="m10.56275,28.8228l4.4819,-2.1639l-3.8583,-3.0062l-0.6236,5.1701z"/>
     <path id="svg_31" d="m19.95535,26.6589l4.4689,2.1639l-0.6105,-5.1701l-3.8584,3.0062z"/>
    </g>
    <path id="svg_32" stroke="#d5bfb2" fill="#d5bfb2" d="m24.42425,28.8228l-4.469,-2.1639l0.3638,2.9025l-0.039,1.231l4.1442,-1.9696z"/>
    <path id="svg_33" stroke="#d5bfb2" fill="#d5bfb2" d="m10.56265,28.8228l4.1572,1.9696l-0.026,-1.231l0.3508,-2.9025l-4.482,2.1639z"/>
    <path id="svg_34" stroke="#233447" fill="#233447" d="m14.79785,21.7349l-3.7155,-1.0884l2.6243,-1.2051l1.0912,2.2935z"/>
    <path id="svg_35" stroke="#233447" fill="#233447" d="m20.20205,21.7349l1.0913,-2.2935l2.6372,1.2051l-3.7285,1.0884z"/>
    <path id="svg_36" stroke="#cc6228" fill="#cc6228" d="m10.56275,28.8228l0.6495,-5.3386l-4.13117,0.1167l3.48167,5.2219z"/>
    <path id="svg_37" stroke="#cc6228" fill="#cc6228" d="m23.78765,23.4842l0.6366,5.3386l3.4946,-5.2219l-4.1312,-0.1167z"/>
    <path id="svg_38" stroke="#cc6228" fill="#cc6228" d="m26.91855,17.6014l-7.405,0.3369l0.6885,3.7966l1.0913,-2.2935l2.6372,1.2051l2.988,-3.0451z"/>
    <path id="svg_39" stroke="#cc6228" fill="#cc6228" d="m11.08235,20.6465l2.6242,-1.2051l1.0913,2.2935l0.6885,-3.7966l-7.40495,-0.3369l3.00095,3.0451z"/>
    <path id="svg_40" stroke="#e27525" fill="#e27525" d="m8.08145,17.6014l3.1049,6.0513l-0.1039,-3.0062l-3.001,-3.0451z"/>
    <path id="svg_41" stroke="#e27525" fill="#e27525" d="m23.93065,20.6465l-0.1169,3.0062l3.1049,-6.0513l-2.988,3.0451z"/>
    <path id="svg_42" stroke="#e27525" fill="#e27525" d="m15.48645,17.9383l-0.6886,3.7967l0.8704,4.4833l0.1949,-5.9087l-0.3767,-2.3713z"/>
    <path id="svg_43" stroke="#e27525" fill="#e27525" d="m19.51365,17.9383l-0.3638,2.3584l0.1819,5.9216l0.8704,-4.4833l-0.6885,-3.7967z"/>
    <path id="svg_44" stroke="#f5841f" fill="#f5841f" d="m20.20215,21.7349l-0.8704,4.4834l0.6236,0.4406l3.8584,-3.0062l0.1169,-3.0062l-3.7285,1.0884z"/>
    <path id="svg_45" stroke="#f5841f" fill="#f5841f" d="m11.08235,20.6465l0.104,3.0062l3.8583,3.0062l0.6236,-0.4406l-0.8704,-4.4834l-3.7155,-1.0884z"/>
    <path id="svg_46" stroke="#c0ac9d" fill="#c0ac9d" d="m20.28005,30.7924l0.039,-1.231l-0.3378,-0.2851l-4.9626,0l-0.3248,0.2851l0.026,1.231l-4.1572,-1.9696l1.4551,1.1921l2.9489,2.0344l5.0536,0l2.962,-2.0344l1.442,-1.1921l-4.1442,1.9696z"/>
    <path id="svg_47" stroke="#161616" fill="#161616" d="m19.95535,26.6589l-0.6236,-0.4406l-3.6635,0l-0.6236,0.4406l-0.3508,2.9025l0.3248,-0.2851l4.9626,0l0.3378,0.2851l-0.3637,-2.9025z"/>
    <path id="svg_48" stroke="#763e1a" fill="#763e1a" d="m33.20625,11.3039l1.1043,-5.36447l-1.6629,-4.98873l-12.6923,9.3944l4.8846,4.1205l6.8983,2.0085l1.52,-1.7752l-0.6626,-0.4795l1.0523,-0.9588l-0.8054,-0.622l1.0523,-0.8034l-0.6886,-0.5313z"/>
    <path id="svg_49" stroke="#763e1a" fill="#763e1a" d="m0.68945,5.93943l1.11724,5.36447l-0.71451,0.5313l1.06527,0.8034l-0.80545,0.622l1.05228,0.9588l-0.66255,0.4795l1.51997,1.7752l6.89835,-2.0085l4.8846,-4.1205l-12.69233,-9.3944l-1.66287,4.98873z"/>
    <path id="svg_50" stroke="#f5841f" fill="#f5841f" d="m31.73835,16.4741l-6.8983,-2.0085l2.0786,3.1358l-3.1049,6.0513l4.1052,-0.0519l6.1318,0l-2.3124,-7.1267z"/>
    <path id="svg_51" stroke="#f5841f" fill="#f5841f" d="m10.15995,14.4656l-6.89828,2.0085l-2.29944,7.1267l6.11883,0l4.10519,0.0519l-3.10487,-6.0513l2.07857,-3.1358z"/>
    <path id="svg_52" stroke="#f5841f" fill="#f5841f" d="m19.51355,17.9383l0.4417,-7.5932l2.0007,-5.4034l-8.9119,0l2.0006,5.4034l0.4417,7.5932l0.1689,2.3842l0.013,5.8958l3.6635,0l0.013,-5.8958l0.1688,-2.3842z"/>
   </g>
  </g>
  <g id="svg_1">
   <g id="svg_2">
    <path id="svg_3" d="m28.61333,16.96763l-0.74118,0l0,-0.05531c0,-0.63601 -0.51561,-1.15162 -1.15162,-1.15162l-6.64632,0c-0.63601,0 -1.15162,0.51561 -1.15162,1.15162l0,0.02044c-0.43139,-0.2055 -0.91377,-0.32077 -1.42258,-0.32077c-0.50882,0 -0.99119,0.11523 -1.42258,0.32077l0,-0.02044c0,-0.63601 -0.51561,-1.15162 -1.15162,-1.15162l-6.64637,0c-0.63601,0 -1.15162,0.51561 -1.15162,1.15162l0,0.05531l-0.74118,0c-0.49099,0 -0.88904,0.39806 -0.88904,0.889c0,0.49099 0.39806,0.88904 0.88904,0.88904l0.76558,0c0.23437,2.25106 2.13736,4.00605 4.45043,4.00605c2.29086,0 4.17933,-1.72157 4.44303,-3.94148c0.33623,-0.4354 0.86293,-0.71655 1.45433,-0.71655s1.1181,0.2812 1.45433,0.71655c0.2637,2.21991 2.15217,3.94148 4.44303,3.94148c2.31307,0 4.21607,-1.75504 4.45043,-4.00605l0.76558,0c0.49099,0 0.88904,-0.39806 0.88904,-0.88904c-0.00005,-0.49094 -0.39806,-0.889 -0.88909,-0.889z"/>
   </g>
  </g>
 </g>
</svg>