<svg width="1311" height="242" xmlns="http://www.w3.org/2000/svg">
 <g>
  <title>Layer 1</title>
  <g fill="none" id="svg_1">
   <g fill="#161616" id="svg_2"/>
   <g stroke-linecap="round" stroke-linejoin="round" id="svg_11">
    <path d="m247.1,1.2l-101.1,75l18.8,-44.2l82.3,-30.8z" fill="#e17726" stroke="#e17726" id="svg_12"/>
    <g fill="#e27625" stroke="#e27625" id="svg_13">
     <path d="m13.9,1.2l100.2,75.7l-17.9,-44.9l-82.3,-30.8z" id="svg_14"/>
     <path d="m210.7,175.1l-26.9,41.2l57.6,15.9l16.5,-56.2l-47.2,-0.9z" id="svg_15"/>
     <path d="m3.2,176l16.4,56.2l57.5,-15.9l-26.8,-41.2l-47.1,0.9z" id="svg_16"/>
     <path d="m74,105.5l-16,24.2l57,2.6l-1.9,-61.5l-39.1,34.7z" id="svg_17"/>
     <path d="m187,105.5l-39.7,-35.4l-1.3,62.2l57,-2.6l-16,-24.2z" id="svg_18"/>
     <path d="m77.1,216.3l34.5,-16.7l-29.7,-23.2l-4.8,39.9z" id="svg_19"/>
     <path d="m149.4,199.6l34.4,16.7l-4.7,-39.9l-29.7,23.2z" id="svg_20"/>
    </g>
    <g fill="#d5bfb2" stroke="#d5bfb2" id="svg_21">
     <path d="m183.8,216.3l-34.4,-16.7l2.8,22.4l-0.3,9.5l31.9,-15.2z" id="svg_22"/>
     <path d="m77.1,216.3l32,15.2l-0.2,-9.5l2.7,-22.4l-34.5,16.7z" id="svg_23"/>
    </g>
    <path d="m109.7,161.6l-28.6,-8.4l20.2,-9.3l8.4,17.7z" fill="#233447" stroke="#233447" id="svg_24"/>
    <path d="m151.3,161.6l8.4,-17.7l20.3,9.3l-28.7,8.4z" fill="#233447" stroke="#233447" id="svg_25"/>
    <g fill="#cc6228" stroke="#cc6228" id="svg_26">
     <path d="m77.1,216.3l5,-41.2l-31.8,0.9l26.8,40.3z" id="svg_27"/>
     <path d="m178.9,175.1l4.9,41.2l26.9,-40.3l-31.8,-0.9z" id="svg_28"/>
     <path d="m203,129.7l-57,2.6l5.3,29.3l8.4,-17.7l20.3,9.3l23,-23.5z" id="svg_29"/>
     <path d="m81.1,153.2l20.2,-9.3l8.4,17.7l5.3,-29.3l-57,-2.6l23.1,23.5z" id="svg_30"/>
    </g>
    <g fill="#e27525" stroke="#e27525" id="svg_31">
     <path d="m58,129.7l23.9,46.7l-0.8,-23.2l-23.1,-23.5z" id="svg_32"/>
     <path d="m180,153.2l-0.9,23.2l23.9,-46.7l-23,23.5z" id="svg_33"/>
     <path d="m115,132.3l-5.3,29.3l6.7,34.6l1.5,-45.6l-2.9,-18.3z" id="svg_34"/>
     <path d="m146,132.3l-2.8,18.2l1.4,45.7l6.7,-34.6l-5.3,-29.3z" id="svg_35"/>
    </g>
    <path d="m151.3,161.6l-6.7,34.6l4.8,3.4l29.7,-23.2l0.9,-23.2l-28.7,8.4z" fill="#f5841f" stroke="#f5841f" id="svg_36"/>
    <path d="m81.1,153.2l0.8,23.2l29.7,23.2l4.8,-3.4l-6.7,-34.6l-28.6,-8.4z" fill="#f5841f" stroke="#f5841f" id="svg_37"/>
    <path d="m151.9,231.5l0.3,-9.5l-2.6,-2.2l-38.2,0l-2.5,2.2l0.2,9.5l-32,-15.2l11.2,9.2l22.7,15.7l38.9,0l22.8,-15.7l11.1,-9.2l-31.9,15.2z" fill="#c0ac9d" stroke="#c0ac9d" id="svg_38"/>
    <path d="m149.4,199.6l-4.8,-3.4l-28.2,0l-4.8,3.4l-2.7,22.4l2.5,-2.2l38.2,0l2.6,2.2l-2.8,-22.4z" fill="#161616" stroke="#161616" id="svg_39"/>
    <g fill="#763e1a" stroke="#763e1a" id="svg_40">
     <path d="m251.4,81.1l8.5,-41.4l-12.8,-38.5l-97.7,72.5l37.6,31.8l53.1,15.5l11.7,-13.7l-5.1,-3.7l8.1,-7.4l-6.2,-4.8l8.1,-6.2l-5.3,-4.1z" id="svg_41"/>
     <path d="m1.1,39.7l8.6,41.4l-5.5,4.1l8.2,6.2l-6.2,4.8l8.1,7.4l-5.1,3.7l11.7,13.7l53.1,-15.5l37.6,-31.8l-97.7,-72.5l-12.8,38.5z" id="svg_42"/>
    </g>
    <g fill="#f5841f" stroke="#f5841f" id="svg_43">
     <path d="m240.1,121l-53.1,-15.5l16,24.2l-23.9,46.7l31.6,-0.4l47.2,0l-17.8,-55z" id="svg_44"/>
     <path d="m74,105.5l-53.1,15.5l-17.7,55l47.1,0l31.6,0.4l-23.9,-46.7l16,-24.2z" id="svg_45"/>
     <path d="m146,132.3l3.4,-58.6l15.4,-41.7l-68.6,0l15.4,41.7l3.4,58.6l1.3,18.4l0.1,45.5l28.2,0l0.1,-45.5l1.3,-18.4z" id="svg_46"/>
    </g>
   </g>
   <text transform="matrix(5.72876, 0, 0, 5.72876, -1669.27, -89.8477)" font-weight="normal" xml:space="preserve" text-anchor="start" font-family="sans-serif" font-size="25" stroke-width="0" fill="#000000" id="svg_47" y="46.19197" x="347.35613">BETTERMASK</text>
  </g>
  <g id="svg_174">
   <g id="svg_156">
    <g id="svg_157">
     <path d="m213.65072,125.80398l-5.54557,0l0,-0.41383c0,-4.75867 -3.85786,-8.61653 -8.61653,-8.61653l-49.72826,0c-4.75867,0 -8.61653,3.85786 -8.61653,8.61653l0,0.15292c-3.22771,-1.53757 -6.83686,-2.40006 -10.64386,-2.40006c-3.807,0 -7.41615,0.86214 -10.64386,2.40006l0,-0.15292c0,-4.75867 -3.85786,-8.61653 -8.61653,-8.61653l-49.72861,0c-4.75867,0 -8.61653,3.85786 -8.61653,8.61653l0,0.41383l-5.54557,0c-3.67359,0 -6.65189,2.9783 -6.65189,6.65154c0,3.67359 2.9783,6.65189 6.65189,6.65189l5.7281,0c1.75354,16.84257 15.99192,29.97357 33.29848,29.97357c17.1404,0 31.27009,-12.8809 33.24309,-29.49043c2.51571,-3.25767 6.45647,-5.36129 10.88143,-5.36129s8.36572,2.10397 10.88143,5.36129c1.973,16.60953 16.10269,29.49043 33.24309,29.49043c17.30655,0 31.54493,-13.13136 33.29848,-29.97357l5.7281,0c3.67359,0 6.65189,-2.9783 6.65189,-6.65189c-0.00035,-3.67324 -2.9783,-6.65154 -6.65224,-6.65154z" id="svg_158"/>
    </g>
   </g>
   <g id="svg_159"/>
   <g id="svg_160"/>
   <g id="svg_161"/>
   <g id="svg_162"/>
   <g id="svg_163"/>
   <g id="svg_164"/>
   <g id="svg_165"/>
   <g id="svg_166"/>
   <g id="svg_167"/>
   <g id="svg_168"/>
   <g id="svg_169"/>
   <g id="svg_170"/>
   <g id="svg_171"/>
   <g id="svg_172"/>
   <g id="svg_173"/>
  </g>
 </g>

</svg>